<svg width="48" height="48" viewBox="0 0 48 48" fill="none" xmlns="http://www.w3.org/2000/svg">
<path fill-rule="evenodd" clip-rule="evenodd" d="M34.5229 17C35.332 17 36.0504 17.3673 36.5025 17.9353L23.3735 28.3621L10.3616 18.1246C10.7967 17.4502 11.5813 17 12.4771 17H34.5229ZM10 34.3571V19.9748L19.3364 27.3205L10.0192 34.6509C10.0065 34.5547 10 34.4566 10 34.3571ZM10.8539 36.129C11.2886 36.4864 11.8562 36.7027 12.4771 36.7027H34.5229C35.0566 36.7027 35.5509 36.5429 35.9553 36.271L26.0342 28.3919L24.2501 29.8088C23.7456 30.2095 23.0105 30.2111 22.504 29.8126L20.693 28.3878L10.8539 36.129ZM27.3834 27.3205L36.9323 34.9041C36.9766 34.7286 37 34.5455 37 34.3571V19.6831L27.3834 27.3205Z" fill="#fafafa"/>
</svg>
