<svg width="48" height="48" viewBox="0 0 48 48" fill="none" xmlns="http://www.w3.org/2000/svg">
<path d="M10.1818 12.3106C10.1818 11.351 10.493 10.5593 11.1154 9.93561C11.7379 9.31186 12.547 9 13.5429 9C14.5211 9 15.3124 9.30705 15.9171 9.92121C16.5395 10.5545 16.8508 11.3798 16.8508 12.397C16.8508 13.3182 16.5484 14.0858 15.9438 14.7C15.3214 15.3333 14.5033 15.65 13.4896 15.65H13.4629C12.4848 15.65 11.6934 15.3333 11.0887 14.7C10.4841 14.0667 10.1818 13.2702 10.1818 12.3106ZM10.5286 37.5V18.2697H16.4506V37.5H10.5286ZM19.7318 37.5H25.6539V26.7621C25.6539 26.0904 25.725 25.5722 25.8673 25.2076C26.1162 24.555 26.4942 24.0033 27.001 23.5523C27.5078 23.1013 28.1436 22.8758 28.9083 22.8758C30.9002 22.8758 31.896 24.3247 31.896 27.2227V37.5H37.8181V26.4742C37.8181 23.6338 37.1957 21.4795 35.9508 20.0114C34.7059 18.5432 33.0609 17.8091 31.0157 17.8091C28.7216 17.8091 26.9343 18.8742 25.6539 21.0045V21.0621H25.6272L25.6539 21.0045V18.2697H19.7318C19.7673 18.8838 19.7851 20.7934 19.7851 23.9985C19.7851 27.2035 19.7673 31.704 19.7318 37.5Z" fill="#fafafa"/>
</svg>
